<svg xmlns="http://www.w3.org/2000/svg" viewBox="220 270 580 460" width="128" height="128">
  <g>
    <path fill="#00a6fe" d="M291.29 270.28C314.84 258.89 338.4 247.49 361.99 236.19C399.13 254.75 436.31 273.21 473.65 291.37C480.63 295.01 487.67 298.51 494.63 302.19C486.5 323.39 479.07 344.86 471.05 366.11C462.37 390.01 453.2 413.72 444.63 437.66C437.29 437.33 429.89 437.95 422.6 437.33C399.27 420.67 376.07 403.78 352.43 387.56C324.66 367.98 296.79 348.54 269.02 328.96C255.58 319.9 242.6 310.17 229.09 301.21C249.61 290.48 270.58 280.64 291.29 270.28Z"/>
    <path fill="#00a6fe" d="M658.95 237.93C662.07 235.76 665.39 238.5 668.35 239.6C707.6 258.21 746.43 277.69 785.61 296.45C788.78 297.94 791.98 299.36 795.03 301.12C788.17 306.29 780.81 310.76 773.9 315.86C756.57 327.82 739.41 340.03 722.12 352.04C709.17 360.71 696.63 369.98 683.73 378.7C656.85 397.44 630.12 416.4 603.51 435.52C600.95 437.28 598.56 439.5 595.55 440.44C590.51 440.88 585.43 440.42 580.38 440.64C576.55 429.85 572.36 419.2 568.73 408.34C561.03 387.39 553.26 366.48 545.57 345.53C540.38 330.93 535.12 316.36 529.56 301.91C532.05 300.12 534.89 298.95 537.63 297.62C562.92 284.74 588.6 272.65 614.06 260.11C628.97 252.61 644.11 245.57 658.95 237.93Z"/>
  </g>
  <g>
    <path fill="#0086f2" d="M796.44 316.46C799.22 314.73 801.61 312.35 804.69 311.12C810.33 335.05 815.44 359.11 820.87 383.09C824.29 398.05 827.25 413.11 830.87 428.02C832.86 438.03 834.8 448.09 837.7 457.89C833.46 457.63 829.23 457.62 825 457.65C772.67 457.66 720.33 457.64 668 457.67C665.17 457.61 662.3 457.97 659.52 457.39C656.04 455.33 653.35 452.21 650.1 449.85C645.3 446.34 640.71 442.57 636.1 438.84C633.41 436.63 630.42 434.78 628.05 432.21C640.51 422.89 653.2 413.85 666.01 405.02C697.7 382.57 729.79 360.69 762.06 339.09C773.7 331.82 784.92 323.9 796.44 316.46Z"/>
    <path fill="#0086f2" d="M218.51 316.58C218.82 314.93 219.18 313.26 219.96 311.76C241.46 326.41 263.34 340.51 284.85 355.15C307.33 370.29 329.88 385.35 352.06 400.93C366.79 411.22 381.43 421.65 396.05 432.09C394.92 433.27 393.78 434.46 392.5 435.49C384.5 441.81 376.39 448 368.44 454.4C366.92 455.55 365.41 456.82 363.59 457.49C359.75 457.98 355.86 457.56 351.99 457.65C297.4 457.73 242.81 457.52 188.22 457.75C189.73 452.16 190.55 446.42 191.88 440.79C196.74 417.37 201.75 393.98 206.77 370.59C207.13 368.88 207.96 367.33 208.39 365.64C210.82 349.11 215.29 332.97 218.51 316.58Z"/>
  </g>
  <g>
    <path fill="#25efff" d="M512.33 325.1C512.65 325.2 513.28 325.4 513.59 325.51C520.49 352.92 527.41 380.35 534.19 407.8C540.73 435.78 548.05 463.57 554.41 491.6C556.68 499.98 558.49 508.47 560.31 516.96C561.88 514.43 562.66 511.54 563.86 508.84C569.31 496.53 574.45 484.09 579.8 471.73C580.45 470.46 580.95 468.94 582.22 468.13C586.21 467.8 590.21 468.36 594.2 468.61C617.71 470.11 641.23 471.69 664.78 472.43C675.13 473.48 685.56 472.88 695.93 473.77C705.47 474.4 715.03 474.11 724.58 474.5C735.39 475.24 746.23 475.26 757.06 475.35C772.04 475.89 787.02 476.24 802.01 476.35C810.38 476.26 818.74 476.56 827.09 476.87C825.52 479.31 823.85 481.77 821.51 483.54C820.12 484.18 818.52 483.99 817.05 484.07C800.03 483.88 783.02 484.83 766.01 484.67C740.67 484.82 715.33 485.24 690 485.67C659.44 485.56 628.87 486.19 598.31 486.28C597.12 487.19 596.66 488.71 595.96 489.98C591.84 498.8 587.79 507.65 583.48 516.38C575.73 533.2 567.75 549.92 559.42 566.47C556.87 571.12 554.75 576 551.86 580.45C551.36 579.46 550.94 578.45 550.6 577.42C547.33 565.48 544.4 553.45 541.59 541.4C537.8 527.29 534.76 512.99 531.18 498.82C524.6 470.89 517.48 443.06 512.13 414.86C511.42 411.11 511.15 407.28 509.95 403.64C509.33 404.89 508.78 406.17 508.5 407.54C501.76 434.67 493.74 461.45 486.41 488.42C482.85 500.45 479.84 512.66 476.06 524.63C471.29 519.09 467.5 512.79 463.14 506.94C458.05 499.38 452.43 492.2 447.43 484.58C446.44 483.1 445.26 481.77 444.07 480.47C440.75 482.74 439.02 486.69 435.87 488.99C411.56 488.41 387.25 487.68 362.93 487.67C345 486.92 327.04 486.74 309.1 486.58C292.42 485.49 275.71 485.77 259.01 485.58C240.5 484.49 221.94 484.78 203.41 484.57C201.18 482.26 198.52 480.25 197.02 477.34C212.65 477.4 228.29 477.22 243.92 476.68C249.93 476.22 255.96 476.39 261.99 476.35C286.66 476.35 311.32 475.88 335.98 475.34C354 475.34 372.02 475.18 390.03 475.07C392.84 475.05 395.63 475.63 398.44 475.35C406.87 474.36 415.38 475.12 423.84 474.76C425.13 474.78 425.98 473.63 426.9 472.89C430.45 469.44 433.44 465.46 436.87 461.9C441.19 457.38 444.85 452.21 449.61 448.12C452.64 455.61 456.64 462.66 460.03 469.99C462.06 473.65 463.31 477.76 465.88 481.11C469.37 473.03 471.5 464.42 474.03 456C486.2 416.18 497.14 376 509.17 336.13C510.33 332.49 511.44 328.82 512.33 325.1Z"/>
  </g>
  <g>
    <path fill="#0062dd" d="M773.07 501.83C784.13 501.17 795.22 500.91 806.3 500.45C805.88 501.27 805.4 502.05 804.88 502.79C789.35 519.95 773.38 536.7 757.69 553.69C748.03 564.36 738.13 574.81 728.29 585.32C721.47 593.15 713.85 600.23 706.92 607.95C702.99 612.34 698.73 616.41 694.64 620.65C692.58 622.75 690.67 625.04 688.25 626.77C672.78 611.22 656.4 596.6 640.72 581.26C631.56 573.12 623.08 564.25 613.93 556.1C610.05 552.65 606.46 548.88 602.53 545.48C601.45 544.59 600.57 543.5 599.9 542.29C612.41 531.02 624.31 519.09 636.77 507.77C639.53 506.27 642.99 507.1 646.04 506.66C655.68 505.71 665.4 506.12 675.06 505.33C679.36 504.97 683.68 504.98 688.01 504.97C693.34 504.98 698.64 504.17 703.97 504.07C727.02 503.89 750.03 502.37 773.07 501.83Z"/>
    <path fill="#0062dd" d="M216.77 501.11C231.53 500.99 246.27 502 261.02 502.35C272.7 503.03 284.41 502.93 296.09 503.58C305.48 504.06 314.88 503.83 324.25 504.54C332.63 505.1 341.05 504.77 349.42 505.5C357.74 506.16 366.1 505.66 374.41 506.51C378.51 506.95 382.66 506.64 386.74 507.23C390.27 509.24 392.86 512.51 395.89 515.16C404.87 523.15 413.42 531.62 422.59 539.39C423.37 540.14 425.26 541.44 423.79 542.55C422.19 544.36 420.26 545.82 418.46 547.42C411.75 553.37 405.57 559.87 399.01 565.99C393.32 570.96 387.99 576.32 382.52 581.54C375.46 587.79 368.81 594.48 362.03 601.03C356.02 606.34 350.33 612 344.57 617.58C341.49 620.51 338.8 623.93 335.07 626.1C326.41 618.05 318.4 609.33 310.28 600.74C304.95 595.07 299.29 589.73 294.05 583.98C287.28 576.1 279.47 569.2 272.74 561.29C262.37 550.31 252.06 539.27 241.81 528.18C236.15 522.5 231.09 516.25 225.35 510.64C222.5 507.45 219.12 504.71 216.77 501.11Z"/>
  </g>
  <g>
    <path fill="#0041ba" d="M428.71 555.73C430.79 553.81 432.65 551.59 435.08 550.1C437.56 550.97 439.31 553.11 441.32 554.72C456.17 567.49 470.61 580.74 485.6 593.36C491.85 599.16 498.57 604.44 504.96 610.11C506.05 611.26 507.69 612.33 507.71 614.11C508.3 644.72 507.63 675.35 508.65 705.95C508.6 726.94 508.83 747.94 509.01 768.94C493.87 755.7 478.08 743.23 462.74 730.23C438.37 710.3 414.43 689.85 389.98 670.02C375.17 657.29 359.75 645.26 345.17 632.27C357.29 621.01 369.64 610.02 381.76 598.76C397.29 584.28 413.38 570.42 428.71 555.73Z"/>
    <path fill="#0041ba" d="M584.29 562.26C587.15 559.59 590.22 557.14 593.12 554.5C595.35 555.62 597.11 557.43 598.95 559.09C612.43 570.9 625.61 583.06 639.13 594.83C644.26 599.74 649.61 604.41 654.91 609.14C663.24 616.24 671.07 623.9 679.28 631.14C678.19 633.05 676.38 634.36 674.71 635.73C637.26 667.29 599.4 698.38 561.85 729.82C547.46 741.78 532.86 753.51 518.62 765.65C517.88 766.2 517.1 766.67 516.26 767.06C516.96 756.52 517.17 745.96 517.49 735.41C518.87 720.98 517.71 706.45 519 692.02C519.12 674.98 520 657.97 520.22 640.93C520.69 634.28 520.72 627.61 520.84 620.95C520.54 618.42 523.07 617.17 524.6 615.64C544.39 597.73 564.7 580.4 584.29 562.26Z"/>
  </g>
</svg>